<?xml version="1.0" encoding="UTF-8"?>
<svg width="210px" height="210px" fill="#c22125" version="1.1" viewBox="0 0 700 700" xmlns="http://www.w3.org/2000/svg">
 <path d="m339.95 69.203c0.69531 19.762 1.1172 39.719 1.25 59.824 0.125 20.008-0.03125 40.004-0.47656 59.918-0.10547 5.3438-3.957 9.7422-9.0039 10.734-15.363 3.4648-29.141 11.285-39.922 22.07-10.887 10.879-18.73 24.742-22.172 40.215-1.1367 5.1328-5.6406 8.6523-10.676 8.75-19.922 0.44141-39.91 0.60156-59.926 0.47656-20.102-0.13281-40.055-0.55469-59.82-1.25-14.652-0.51562-27.859-6.6484-37.516-16.297l-0.058594-0.058593c-9.6445-9.6641-15.754-22.859-16.277-37.504-0.89453-25.207-1.3555-49.711-1.3555-73.449 0.039062-24.613 0.48437-49.109 1.3555-73.449 0.51562-14.652 6.6328-27.852 16.285-37.508l0.058594-0.058593c9.6562-9.6367 22.852-15.75 37.488-16.266 25.113-0.89844 49.516-1.3555 73.18-1.3555 23.832 0 48.438 0.46484 73.723 1.3555 14.695 0.52734 27.926 6.6484 37.57 16.289 9.6445 9.6445 15.773 22.852 16.289 37.562zm10.055 136.98c20.371 0 38.84 8.2695 52.191 21.621 13.355 13.355 21.621 31.82 21.621 52.191s-8.2695 38.84-21.621 52.191c-13.355 13.355-31.82 21.621-52.191 21.621s-38.84-8.2695-52.191-21.621c-13.355-13.355-21.621-31.82-21.621-52.191s8.2695-38.84 21.621-52.191c13.355-13.355 31.82-21.621 52.191-21.621zm36.359 37.457c-9.293-9.293-22.156-15.047-36.359-15.047-14.199 0-27.066 5.7539-36.359 15.047s-15.047 22.156-15.047 36.359c0 14.199 5.7539 27.066 15.047 36.359s22.156 15.047 36.359 15.047c14.199 0 27.066-5.7539 36.359-15.047s15.047-22.156 15.047-36.359c0-14.199-5.7539-27.066-15.047-36.359zm228.3 100.29c0.89453 25.195 1.3477 49.691 1.3477 73.438 0 23.75-0.45703 48.246-1.3477 73.426-0.52734 14.711-6.6523 27.926-16.297 37.57-9.6445 9.6445-22.852 15.77-37.555 16.305-25.207 0.89453-49.707 1.3477-73.449 1.3477-23.746 0-48.238-0.45703-73.43-1.3477-14.672-0.53516-27.871-6.6602-37.527-16.297-9.6836-9.6445-15.82-22.859-16.355-37.555v-0.14062c-0.6875-19.77-1.1055-39.727-1.2383-59.785-0.13281-19.98 0.027344-39.938 0.46484-59.832 0.10547-5.3438 3.957-9.7344 8.9961-10.727 15.352-3.4727 29.129-11.309 39.941-22.125 10.879-10.879 18.738-24.742 22.172-40.18 1.1367-5.1328 5.6406-8.6523 10.676-8.75 19.863-0.4375 39.805-0.59375 59.754-0.46484 20.133 0.125 40.121 0.55078 59.938 1.2383 14.758 0.54297 27.977 6.668 37.621 16.312l0.61328 0.66016c9.2852 9.5977 15.172 22.547 15.684 36.914zm-21.059 73.438c0-24.949-0.42188-49.176-1.2578-72.645-0.3125-8.5703-3.8047-16.312-9.332-22.078l-0.48438-0.45703c-5.8086-5.8086-13.746-9.5039-22.535-9.8281-19.895-0.69531-39.664-1.1172-59.285-1.2383-16.898-0.10547-33.863-0.007813-50.852 0.29687-5.1133 16.312-14.09 30.883-25.82 42.617-11.734 11.734-26.305 20.711-42.621 25.828-0.30469 17.012-0.40234 33.996-0.29688 50.93 0.125 19.547 0.54297 39.262 1.2305 59.105l0.007813 0.11719c0.31641 8.7695 4.0195 16.699 9.8359 22.516 5.7891 5.8086 13.73 9.4961 22.527 9.8164 23.469 0.83203 47.688 1.2578 72.637 1.2578s49.176-0.42187 72.656-1.2578c8.7773-0.31641 16.707-4.0156 22.516-9.8203 5.8086-5.8086 9.5039-13.738 9.8164-22.527 0.83203-23.453 1.2578-47.676 1.2578-72.629zm-252.88-46.312c0.44141 19.914 0.60156 39.902 0.47656 59.926-0.13281 20.102-0.55469 40.055-1.25 59.812-0.51562 14.695-6.6484 27.918-16.289 37.562l-0.66797 0.61328c-9.6055 9.3008-22.562 15.172-36.902 15.695-25.207 0.89453-49.707 1.3477-73.449 1.3477-23.746 0-48.238-0.45703-73.43-1.3477-14.703-0.53516-27.918-6.6602-37.562-16.305l-0.60938-0.66016c-9.3008-9.5977-15.18-22.555-15.684-36.887-0.89453-25.207-1.3555-49.711-1.3555-73.449 0.039062-24.605 0.47656-49.098 1.3555-73.449 0.51562-14.672 6.6406-27.871 16.277-37.516 9.6562-9.6719 22.879-15.809 37.555-16.352 19.75-0.69531 39.691-1.1094 59.781-1.2383 20.035-0.13281 40.043 0.027343 59.984 0.46875 5.3438 0.10547 9.7344 3.957 10.727 8.9961 3.4727 15.34 11.309 29.121 22.125 39.938l0.50781 0.54297c10.762 10.59 24.426 18.242 39.66 21.629 5.1328 1.1367 8.6523 5.6406 8.75 10.676zm-21.84 59.832c0.097657-16.965 0-33.984-0.3125-51.023-16-5.0273-30.348-13.789-41.988-25.246l-0.61328-0.57422c-11.734-11.734-20.711-26.312-25.828-42.617-17.059-0.3125-34.098-0.41016-51.082-0.30469-19.52 0.11719-39.223 0.53516-59.078 1.2383-8.8086 0.32422-16.734 4-22.516 9.7891-5.8008 5.8008-9.4844 13.746-9.7969 22.555-0.875 24.348-1.3086 48.574-1.3086 72.656 0.046875 24.957 0.47656 49.176 1.3086 72.656 0.30469 8.5664 3.7891 16.305 9.3047 22.039l0.50391 0.46875c5.8086 5.8086 13.746 9.5039 22.52 9.8203 23.469 0.83203 47.688 1.2578 72.637 1.2578 24.949 0 49.176-0.42188 72.656-1.2578 8.5781-0.3125 16.316-3.8086 22.059-9.332l0.46875-0.49609c5.8086-5.8086 9.4961-13.738 9.8086-22.52 0.69922-19.867 1.125-39.586 1.25-59.113zm295.78-361.68c0.89453 25.195 1.3477 49.688 1.3477 73.438 0 23.746-0.45703 48.238-1.3477 73.445-0.53516 14.672-6.6602 27.871-16.305 37.527-9.6445 9.6836-22.859 15.816-37.551 16.332-19.77 0.69531-39.73 1.1172-59.84 1.25-20.016 0.125-40.004-0.03125-59.918-0.47656-5.3438-0.10547-9.7422-3.957-10.734-9.0039-3.4648-15.363-11.285-29.137-22.07-39.918-10.914-10.875-24.785-18.738-40.223-22.176-5.1328-1.1367-8.6523-5.6406-8.75-10.676-0.4375-19.895-0.59375-39.852-0.46875-59.84 0.125-20.133 0.54297-40.129 1.2383-59.926 0.54297-14.676 6.6797-27.898 16.352-37.555 9.6445-9.6367 22.844-15.762 37.516-16.277 25.109-0.89844 49.516-1.3555 73.18-1.3555 23.832 0 48.43 0.46484 73.703 1.3555 14.676 0.52344 27.879 6.6484 37.535 16.285 9.6836 9.6445 15.809 22.859 16.336 37.57zm-21.059 73.438c0-24.957-0.42188-49.176-1.2578-72.645-0.3125-8.7891-4.0078-16.723-9.8164-22.527-5.7891-5.8086-13.73-9.4844-22.535-9.8008-23.547-0.83203-47.855-1.2617-72.91-1.2617-24.852 0-48.992 0.42188-72.387 1.2617-8.8086 0.3125-16.754 3.9961-22.555 9.7969-5.7891 5.7812-9.4648 13.703-9.7891 22.516-0.69922 19.902-1.1172 39.664-1.2383 59.223-0.097657 16.934 0 33.918 0.30469 50.938 16.312 5.125 30.883 14.094 42.617 25.828 11.727 11.766 20.711 26.332 25.82 42.602 17.043 0.3125 34.059 0.41016 51.016 0.3125 19.531-0.125 39.254-0.55078 59.137-1.25 8.7773-0.3125 16.699-4 22.508-9.8086 5.8125-5.793 9.5039-13.73 9.8203-22.527 0.83203-23.473 1.2578-47.695 1.2578-72.652zm-274.72-13.52c-0.125-19.531-0.55078-39.254-1.25-59.125-0.3125-8.7891-4-16.715-9.8086-22.52-5.8086-5.8086-13.746-9.4961-22.527-9.8086-23.559-0.83203-47.875-1.2617-72.93-1.2617-24.852 0-48.992 0.42188-72.387 1.2617-8.8086 0.3125-16.734 3.9805-22.508 9.7617-5.8203 5.8125-9.4922 13.738-9.8008 22.547-0.875 24.34-1.3086 48.574-1.3086 72.656 0.046875 24.957 0.47656 49.176 1.3086 72.656 0.31641 8.8086 3.9883 16.742 9.7773 22.52 5.8203 5.8281 13.746 9.5039 22.555 9.8164 19.867 0.69922 39.594 1.125 59.117 1.25 16.965 0.097656 33.977 0 51.023-0.3125 5.1055-16.258 14.074-30.816 25.809-42.555l0.054687-0.054687c11.742-11.742 26.305-20.715 42.57-25.82 0.3125-17.039 0.41016-34.059 0.3125-51.016z"/>
</svg>
